<?xml version="1.0" standalone="no"?>
<!DOCTYPE svg PUBLIC "-//W3C//DTD SVG 20010904//EN"
 "http://www.w3.org/TR/2001/REC-SVG-20010904/DTD/svg10.dtd">
<svg version="1.0" xmlns="http://www.w3.org/2000/svg"
 width="512.000000pt" height="512.000000pt" viewBox="0 0 512.000000 512.000000"
 preserveAspectRatio="xMidYMid meet">
<metadata>
Created by potrace 1.11, written by Peter Selinger 2001-2013
</metadata>
<g transform="translate(0.000000,512.000000) scale(0.100000,-0.100000)"
fill="#000000" stroke="none">
<path d="M2145 4764 c-381 -51 -733 -195 -1045 -427 -126 -94 -348 -317 -442
-443 -669 -903 -580 -2136 212 -2924 187 -186 361 -311 596 -426 605 -297
1333 -297 1938 0 235 115 409 240 596 426 792 788 881 2021 212 2924 -94 126
-316 349 -442 443 -317 235 -666 377 -1054 428 -143 18 -431 18 -571 -1z m460
-89 c55 -3 140 -12 188 -20 808 -142 1465 -735 1687 -1522 50 -175 71 -319 77
-520 l6 -182 -44 -50 c-52 -59 -114 -158 -235 -374 -89 -159 -165 -260 -204
-270 -27 -7 -72 31 -106 88 -42 72 -113 288 -170 516 -49 198 -88 381 -174
809 -122 606 -226 1013 -295 1150 -77 153 -154 195 -243 130 -81 -58 -183
-319 -267 -680 -73 -314 -105 -455 -160 -710 -166 -771 -282 -1156 -381 -1263
-63 -68 -124 -11 -264 245 -219 402 -304 498 -440 498 -95 0 -167 -52 -327
-232 -182 -205 -238 -248 -322 -248 -66 1 -113 26 -224 121 -176 150 -201 169
-262 199 -32 17 -77 33 -98 37 l-40 6 6 196 c6 216 25 352 77 534 245 867
1018 1493 1910 1546 69 4 143 6 165 5 22 -2 85 -6 140 -9z m587 -342 c28 -32
65 -115 105 -238 71 -213 129 -472 288 -1270 130 -659 258 -1056 372 -1156 43
-37 98 -52 144 -39 91 25 160 111 319 398 123 220 124 221 94 77 -85 -402
-283 -765 -579 -1060 -833 -835 -2167 -835 -3000 0 -240 239 -412 517 -518
835 -37 109 -87 329 -87 379 0 29 1 29 32 20 43 -12 123 -67 211 -147 163
-147 237 -190 337 -199 127 -12 217 47 406 263 153 174 196 209 264 209 87 0
148 -73 310 -370 140 -256 179 -312 253 -366 56 -41 128 -41 184 0 146 106
255 459 513 1666 121 563 226 909 303 993 25 27 29 27 49 5z"/>
<path d="M681 3653 c-6 -49 -21 -158 -31 -243 -21 -163 -76 -546 -86 -592 l-6
-28 96 0 c72 0 96 3 96 13 0 71 93 701 101 681 8 -22 78 -331 124 -544 l31
-145 70 -3 70 -3 179 355 c99 195 181 353 183 352 1 -2 -18 -142 -43 -312 -25
-170 -48 -328 -51 -351 l-6 -43 90 0 c78 0 91 2 96 18 2 9 16 107 31 217 14
110 42 307 61 438 19 131 34 247 34 258 0 18 -8 19 -134 19 l-134 0 -163 -310
c-89 -170 -166 -310 -171 -310 -4 0 -8 8 -8 18 0 9 -28 132 -61 272 -34 140
-66 272 -71 293 l-9 37 -138 0 -137 0 -13 -87z"/>
<path d="M1901 3678 c-5 -35 -22 -151 -36 -258 -15 -107 -40 -287 -56 -400
-16 -113 -29 -211 -29 -217 0 -10 73 -13 330 -13 l330 0 5 23 c3 12 7 49 8 82
l2 60 -234 3 -233 2 5 33 c4 17 11 69 18 115 l11 82 213 0 213 0 6 25 c3 13 9
52 13 85 l6 60 -212 0 c-195 0 -211 1 -210 18 0 9 6 55 13 102 l11 85 226 3
226 2 7 53 c4 28 9 67 12 85 l6 32 -320 0 -320 0 -11 -62z"/>
</g>
</svg>
